<svg width="36" height="35" viewBox="0 0 36 35" fill="none" xmlns="http://www.w3.org/2000/svg">
<path d="M25.8284 8.82975C25.8284 13.1521 22.3237 16.6595 18.0014 16.6595C13.6762 16.6595 10.1716 13.1549 10.1716 8.82975C10.1716 4.50464 13.6762 1 18.0014 1C22.3237 1 25.8284 4.50464 25.8284 8.82975ZM7.82975 18.6156C3.50736 18.6156 0 22.1202 0 26.4426C0 30.765 3.50464 34.2724 7.82975 34.2724C12.1549 34.2724 15.6595 30.7677 15.6595 26.4426C15.6595 22.1202 12.1549 18.6156 7.82975 18.6156ZM28.1703 18.6156C23.8451 18.6156 20.3405 22.1202 20.3405 26.4453C20.3405 30.7704 23.8451 34.2751 28.1703 34.2751C32.4926 34.2751 36 30.7704 36 26.4453C36 22.1202 32.4954 18.6156 28.1703 18.6156Z" fill="#F06A6A"/>
</svg>
